<?xml version="1.0" encoding="UTF-8" standalone="no"?>
<!-- Created with Inkscape (http://www.inkscape.org/) -->

<svg
   width="210mm"
   height="297mm"
   viewBox="0 0 210 297"
   version="1.1"
   id="svg5"
   inkscape:version="1.2.1 (9c6d41e410, 2022-07-14)"
   sodipodi:docname="cabeza.svg"
   xmlns:inkscape="http://www.inkscape.org/namespaces/inkscape"
   xmlns:sodipodi="http://sodipodi.sourceforge.net/DTD/sodipodi-0.dtd"
   xmlns="http://www.w3.org/2000/svg"
   xmlns:svg="http://www.w3.org/2000/svg">
  <sodipodi:namedview
     id="namedview7"
     pagecolor="#ffffff"
     bordercolor="#000000"
     borderopacity="0.25"
     inkscape:showpageshadow="2"
     inkscape:pageopacity="0.0"
     inkscape:pagecheckerboard="0"
     inkscape:deskcolor="#d1d1d1"
     inkscape:document-units="mm"
     showgrid="false"
     inkscape:zoom="1.0494603"
     inkscape:cx="378.28966"
     inkscape:cy="296.81922"
     inkscape:window-width="1920"
     inkscape:window-height="991"
     inkscape:window-x="2391"
     inkscape:window-y="-9"
     inkscape:window-maximized="1"
     inkscape:current-layer="layer1" />
  <defs
     id="defs2" />
  <g
     inkscape:label="Capa 1"
     inkscape:groupmode="layer"
     id="layer1">
    <path
       style="fill:#0000ff;stroke-width:0.264583;stroke:#280b0b"
       d="M 41.715486,61.325331 H 167.21848 v 14.261703 h 25.67107 V 98.049219 H 166.5054 V 146.53901 H 41.358944 V 101.97119 H 20.679472 V 73.804321 h 21.392556 z"
       id="path113" />
    <ellipse
       style="fill:#f9f9f9;stroke:#280b0b;stroke-width:0.264583"
       id="path891"
       cx="70.238899"
       cy="84.144058"
       rx="17.114046"
       ry="14.97479" />
    <ellipse
       style="fill:#ffffff;stroke:#280b0b;stroke-width:0.264583"
       id="path895"
       cx="132.81212"
       cy="84.322334"
       rx="17.292316"
       ry="14.796518" />
    <rect
       style="fill:#ff9955;stroke:#280b0b;stroke-width:0.264583"
       id="rect949"
       width="90.205284"
       height="31.019209"
       x="57.403358"
       y="108.38895" />
    <ellipse
       style="fill:#241c1c;stroke:#280b0b;stroke-width:0.264583"
       id="path1055"
       cx="72.734688"
       cy="89.670471"
       rx="9.2701082"
       ry="8.7352943" />
    <ellipse
       style="fill:#241c1c;stroke:#280b0b;stroke-width:0.264583"
       id="path1055-4"
       cx="130.13806"
       cy="79.152466"
       rx="9.2701082"
       ry="8.7352943" />
    <path
       style="fill:#ff9955;stroke:#280b0b;stroke-width:0.264583"
       d="m 69.882352,108.03241 0.356542,31.01921 -0.356542,-0.35654 -0.356542,-1.06963"
       id="path1343" />
    <path
       style="fill:#ff9955;stroke:#280b0b;stroke-width:0.264583"
       d="m 86.283312,108.03241 0.356542,31.37575"
       id="path1345" />
    <path
       style="fill:#ff9955;stroke:#280b0b;stroke-width:0.264583"
       d="m 101.61464,108.7455 -0.35654,29.94958"
       id="path1347" />
    <path
       style="fill:#ff9955;stroke:#280b0b;stroke-width:0.264583"
       d="m 115.16327,107.67587 1.06962,31.73229"
       id="path1349" />
    <path
       style="fill:#ff9955;stroke:#280b0b;stroke-width:0.264583"
       d="m 132.9904,108.03241 0.35654,31.37575"
       id="path1351" />
    <path
       id="rect1405"
       style="fill:#000080;stroke:#280b0b;stroke-width:0.139442"
       d="m 153.12865,10.267325 c -1.55659,2.295471 -1.94512,5.51181 -1.00153,8.290879 l -30.87013,42.77948 9.68114,0.459295 26.12754,-38.511472 c 2.09632,0.349537 4.19052,-0.662734 5.5688,-2.691784 2.25347,-3.321619 1.95233,-8.325926 -0.6726,-11.1774988 -2.62497,-2.8515168 -6.57971,-2.4704683 -8.83322,0.8511008 z"
       sodipodi:nodetypes="cccccccc" />
    <path
       id="rect1405-1"
       style="fill:#000080;stroke:#280b0b;stroke-width:0.144696"
       d="m 56.659743,9.8469642 c 1.67631,2.2952008 2.09472,5.5111608 1.07856,8.2899028 l 34.000701,43.530786 -11.182061,-0.2971 -28.13702,-38.506939 c -2.25755,0.349496 -4.51281,-0.662656 -5.9971,-2.691467 -2.42679,-3.321228 -2.10248,-8.324946 0.72433,-11.1761836 2.82686,-2.8511813 7.08576,-2.4701772 9.51259,0.8510008 z"
       sodipodi:nodetypes="cccccccc" />
  </g>
</svg>
