<?xml version="1.0" encoding="UTF-8" standalone="no"?>
<!-- Created with Inkscape (http://www.inkscape.org/) -->

<svg
   width="594mm"
   height="841mm"
   viewBox="0 0 594 841"
   version="1.1"
   id="svg1838"
   inkscape:version="1.2.1 (9c6d41e410, 2022-07-14)"
   sodipodi:docname="eslabon_conmedidas.svg"
   xmlns:inkscape="http://www.inkscape.org/namespaces/inkscape"
   xmlns:sodipodi="http://sodipodi.sourceforge.net/DTD/sodipodi-0.dtd"
   xmlns="http://www.w3.org/2000/svg"
   xmlns:svg="http://www.w3.org/2000/svg">
  <sodipodi:namedview
     id="namedview1840"
     pagecolor="#ffffff"
     bordercolor="#000000"
     borderopacity="0.25"
     inkscape:showpageshadow="2"
     inkscape:pageopacity="0.0"
     inkscape:pagecheckerboard="0"
     inkscape:deskcolor="#d1d1d1"
     inkscape:document-units="mm"
     showgrid="false"
     showguides="true"
     inkscape:zoom="1.0458444"
     inkscape:cx="743.89651"
     inkscape:cy="189.79879"
     inkscape:window-width="1920"
     inkscape:window-height="991"
     inkscape:window-x="2391"
     inkscape:window-y="-9"
     inkscape:window-maximized="1"
     inkscape:current-layer="layer1">
    <sodipodi:guide
       position="191.94647,821.054"
       orientation="0,-1"
       id="guide1854"
       inkscape:locked="false" />
    <sodipodi:guide
       position="194.54034,760.94777"
       orientation="0,-1"
       id="guide1856"
       inkscape:locked="false" />
    <sodipodi:guide
       position="179.69267,790.91143"
       orientation="0,-1"
       id="guide1858"
       inkscape:locked="false" />
    <sodipodi:guide
       position="149.99731,814.61405"
       orientation="1,0"
       id="guide1860"
       inkscape:locked="false" />
    <sodipodi:guide
       position="299.99462,799.76639"
       orientation="1,0"
       id="guide1862"
       inkscape:locked="false" />
    <sodipodi:guide
       position="139.64792,801.02829"
       orientation="0,-1"
       id="guide1897"
       inkscape:locked="false" />
    <sodipodi:guide
       position="158.11586,781.04245"
       orientation="0,-1"
       id="guide1899"
       inkscape:locked="false" />
  </sodipodi:namedview>
  <defs
     id="defs1835">
    <rect
       x="743.89651"
       y="28.684955"
       width="270.59475"
       height="32.509616"
       id="rect2092" />
  </defs>
  <g
     inkscape:label="Capa 1"
     inkscape:groupmode="layer"
     id="layer1">
    <path
       id="path1868"
       style="fill:#000080;stroke:#280b0b;stroke-width:0.264583"
       d="M 151.5184 19.857186 C 151.1092 19.857186 150.74094 20.013122 150.45748 20.262846 A 30.410904 29.963684 0 0 0 148.36562 20.217887 A 30.410904 29.963684 0 0 0 118.42533 50.486324 A 30.410904 29.963684 0 0 0 148.99091 80.141361 A 30.410904 29.963684 0 0 0 151.02541 80.056612 C 151.18159 80.106839 151.34509 80.140845 151.5184 80.140845 L 298.38385 80.140845 C 298.78032 80.140845 299.13794 79.993879 299.4179 79.757922 A 30.410904 29.963684 0 0 0 300.24059 79.783761 A 30.410904 29.963684 0 0 0 330.49507 49.820215 L 330.48835 49.204232 A 30.410904 29.963684 0 0 0 299.61479 19.860286 A 30.410904 29.963684 0 0 0 298.75799 19.904728 C 298.63757 19.876162 298.51326 19.857186 298.38385 19.857186 L 151.5184 19.857186 z M 299.50782 39.909709 A 9.9296761 9.9296761 0 0 1 309.58885 49.63418 L 309.59092 49.838302 A 9.9296761 9.9296761 0 0 1 299.71246 59.767928 A 9.9296761 9.9296761 0 0 1 289.73219 49.940104 A 9.9296761 9.9296761 0 0 1 299.50782 39.909709 z M 149.93038 40.225968 A 9.9296761 9.9296761 0 0 1 160.0109 49.949923 L 160.01349 50.154561 A 9.9296761 9.9296761 0 0 1 150.13451 60.083671 A 9.9296761 9.9296761 0 0 1 140.15424 50.256364 A 9.9296761 9.9296761 0 0 1 149.93038 40.225968 z " />
    <path
       style="fill:#000080;stroke:#280b0b;stroke-width:0.264583"
       d="M 149.76734,6.830605 H 299.53468"
       id="path2036" />
    <text
       xml:space="preserve"
       transform="matrix(0.26458333,0,0,0.26458333,16.191064,-4.5537367)"
       id="text2090"
       style="white-space:pre;shape-inside:url(#rect2092);fill:#000080;stroke:#280b0b"><tspan
         x="743.89648"
         y="39.633511"
         id="tspan2180">150 mm</tspan></text>
    <path
       style="fill:#000080;stroke:#280b0b;stroke-width:0.264583"
       d="M 94.110557,40.224672 93.857571,60.716487"
       id="path2146" />
    <path
       style="fill:#000080;stroke:#280b0b;stroke-width:0.264583"
       d="m 348.36086,19.985844 0.50597,59.704546"
       id="path2148" />
    <text
       xml:space="preserve"
       style="font-size:3.175px;fill:#000080;stroke:#280b0b;stroke-width:0.264583"
       x="-55.339397"
       y="92.736374"
       id="text2152"
       transform="rotate(-89.518548)"><tspan
         sodipodi:role="line"
         id="tspan2150"
         style="stroke-width:0.264583"
         x="-55.339397"
         y="92.736374">20 mm</tspan></text>
    <text
       xml:space="preserve"
       style="font-size:3.175px;fill:#000080;stroke:#280b0b;stroke-width:0.264583"
       x="47.478313"
       y="-352.16846"
       id="text2156"
       transform="rotate(89.528907)"><tspan
         sodipodi:role="line"
         id="tspan2154"
         style="stroke-width:0.264583"
         x="47.478313"
         y="-352.16846">60 mm</tspan></text>
  </g>
</svg>
