<?xml version="1.0" encoding="UTF-8" standalone="no"?>
<!-- Created with Inkscape (http://www.inkscape.org/) -->

<svg
   width="210mm"
   height="297mm"
   viewBox="0 0 210 297"
   version="1.1"
   id="svg5"
   inkscape:version="1.2.1 (9c6d41e410, 2022-07-14)"
   sodipodi:docname="pinzas_cerradas.svg"
   xmlns:inkscape="http://www.inkscape.org/namespaces/inkscape"
   xmlns:sodipodi="http://sodipodi.sourceforge.net/DTD/sodipodi-0.dtd"
   xmlns="http://www.w3.org/2000/svg"
   xmlns:svg="http://www.w3.org/2000/svg">
  <sodipodi:namedview
     id="namedview7"
     pagecolor="#ffffff"
     bordercolor="#000000"
     borderopacity="0.25"
     inkscape:showpageshadow="2"
     inkscape:pageopacity="0.0"
     inkscape:pagecheckerboard="0"
     inkscape:deskcolor="#d1d1d1"
     inkscape:document-units="mm"
     showgrid="false"
     showguides="true"
     inkscape:zoom="2.0989207"
     inkscape:cx="358.27938"
     inkscape:cy="419.02488"
     inkscape:window-width="1920"
     inkscape:window-height="991"
     inkscape:window-x="2391"
     inkscape:window-y="-9"
     inkscape:window-maximized="1"
     inkscape:current-layer="layer1">
    <sodipodi:guide
       position="140.12125,196.9898"
       orientation="0,-1"
       id="guide2192"
       inkscape:locked="false" />
    <sodipodi:guide
       position="79.330733,156.70048"
       orientation="0,-1"
       id="guide2194"
       inkscape:locked="false" />
    <sodipodi:guide
       position="129.95978,175.06243"
       orientation="1,0"
       id="guide2196"
       inkscape:locked="false" />
    <sodipodi:guide
       position="149.92617,180.76711"
       orientation="1,0"
       id="guide2198"
       inkscape:locked="false" />
    <sodipodi:guide
       position="70.773708,167.04022"
       orientation="0,-1"
       id="guide2200"
       inkscape:locked="false" />
    <sodipodi:guide
       position="92.344536,147.07383"
       orientation="0,-1"
       id="guide2202"
       inkscape:locked="false" />
  </sodipodi:namedview>
  <defs
     id="defs2" />
  <g
     inkscape:label="Capa 1"
     inkscape:groupmode="layer"
     id="layer1">
    <path
       id="path2258-5"
       style="fill:#00ffff;stroke:#280b0b;stroke-width:0.0868991"
       d="m 118.85461,92.37998 -24.688201,10.42518 -25.51672,15.20174 c -1.76757,0.69319 -2.824268,1.85589 -3.406715,3.33137 a 7.142972,7.142972 0 0 0 -0.690014,3.97661 7.142972,7.142972 0 0 0 0.10127,0.61514 c 0.01644,0.39854 0.04164,0.80254 0.07904,1.21491 0.838368,1.75493 2.03581,3.04502 3.70604,3.72287 a 7.142972,7.142972 0 0 0 4.031347,0.71802 7.142972,7.142972 0 0 0 2.076067,-0.5677 c 6.78e-4,-1.5e-4 0.0014,-8e-5 0.0021,-2.4e-4 l 0.0025,-8e-4 8.79e-4,-0.001 a 7.142972,7.142972 0 0 0 1.689273,-1.05619 l 19.59086,-12.24663 24.158064,-6.72612 19.89746,-0.9754 a 9.9829454,9.9829454 0 0 0 1.20112,-0.0587 9.9829454,9.9829454 0 0 0 0.007,-2.8e-4 9.9829454,9.9829454 0 0 0 2.22327,-0.52281 c 3.89483,-1.27287 5.88192,-4.09459 6.42334,-7.48586 a 9.9829454,9.9829454 0 0 0 0.1209,-3.054055 l -0.001,1.15e-4 c -2.7e-4,-0.004 -1.7e-4,-0.009 -4.8e-4,-0.01293 a 9.9829454,9.9829454 0 0 0 -2.82531,-5.864911 c -0.0124,-0.01344 -0.0249,-0.02659 -0.0374,-0.0399 a 9.9829454,9.9829454 0 0 0 -0.0354,-0.03597 c -0.44756,-0.472024 -0.9228,-0.850985 -1.42262,-1.160007 a 9.9829454,9.9829454 0 0 0 -6.73936,-1.657147 c -5.5e-4,-7.1e-5 -0.001,-2.66e-4 -0.002,-2.84e-4 l -0.009,0.001 z m 20.85899,4.116534 a 3.5295918,3.5295918 0 0 1 3.91402,3.096431 l -3.50558,0.410225 3.50616,-0.405258 a 3.5295918,3.5295918 0 0 1 -3.09986,3.911298 3.5295918,3.5295918 0 0 1 -3.91222,-3.09872 3.5295918,3.5295918 0 0 1 3.09752,-3.913628 z"
       inkscape:transform-center-x="32.838305"
       inkscape:transform-center-y="10.844252" />
  </g>
  <g
     inkscape:groupmode="layer"
     id="layer2"
     inkscape:label="capa2">
    <path
       id="path2258"
       style="fill:#000080;stroke:#280b0b;stroke-width:0.0868991"
       d="m 139.7659,90.027351 c -5.25503,0.19138 -8.76928,2.8971 -9.80612,9.982849 v 29.9496 l -50.896644,0.0889 c -5.47e-4,9e-5 -0.001,4.3e-4 -0.0015,5.2e-4 a 9.9829454,9.9829454 0 0 0 -0.0078,-5.2e-4 9.9829454,9.9829454 0 0 0 -7.05745,2.94194 c -0.04033,0.0388 -0.07881,0.078 -0.117822,0.1173 a 9.9829454,9.9829454 0 0 0 -0.176734,0.18294 c -0.128387,0.13855 -0.249397,0.28004 -0.363285,0.42375 A 9.9829454,9.9829454 0 0 0 69.080802,140.03 c -1.14e-4,5.3e-4 -4.03e-4,0.001 -5.17e-4,0.002 7.7e-5,3.3e-4 -7.7e-5,7.1e-4 0,10e-4 a 9.9829454,9.9829454 0 0 0 0,0.006 9.9829454,9.9829454 0 0 0 2.692859,6.81199 c 0.130858,0.14313 0.272124,0.28187 0.419096,0.41858 a 9.9829454,9.9829454 0 0 0 0.189135,0.17415 9.9829454,9.9829454 0 0 0 6.68073,2.57193 9.9829454,9.9829454 0 0 0 0.0041,0 9.9829454,9.9829454 0 0 0 5.16e-4,0 l 61.054159,-0.0894 a 9.9829454,9.9829454 0 0 0 5.2e-4,0 9.9829454,9.9829454 0 0 0 0.003,0 9.9829454,9.9829454 0 0 0 7.398,-3.28455 c 1.08561,-1.04597 1.82916,-2.33005 2.17816,-3.88917 a 9.9829454,9.9829454 0 0 0 0.4036,-2.80913 h -0.17932 v -0.0124 h 0.17932 a 9.9829454,9.9829454 0 0 0 -0.18759,-1.87947 l -0.17001,-38.04058 c -0.23543,-4.759809 -2.61995,-8.996639 -9.98027,-9.982849 z m 0.35191,6.45284 a 3.5295918,3.5295918 0 0 1 3.5326,3.525359 l -3.5295,0.005 h 3.5295 a 3.5295918,3.5295918 0 0 1 -3.52846,3.5295 3.5295918,3.5295918 0 0 1 -3.53054,-3.52743 3.5295918,3.5295918 0 0 1 3.5264,-3.532079 z" />
  </g>
</svg>
