<?xml version="1.0" encoding="UTF-8" standalone="no"?>
<!-- Created with Inkscape (http://www.inkscape.org/) -->

<svg
   width="210mm"
   height="297mm"
   viewBox="0 0 210 297"
   version="1.1"
   id="svg5"
   inkscape:version="1.2.1 (9c6d41e410, 2022-07-14)"
   sodipodi:docname="pinzas_abiertas.svg"
   xmlns:inkscape="http://www.inkscape.org/namespaces/inkscape"
   xmlns:sodipodi="http://sodipodi.sourceforge.net/DTD/sodipodi-0.dtd"
   xmlns="http://www.w3.org/2000/svg"
   xmlns:svg="http://www.w3.org/2000/svg">
  <sodipodi:namedview
     id="namedview7"
     pagecolor="#ffffff"
     bordercolor="#000000"
     borderopacity="0.25"
     inkscape:showpageshadow="2"
     inkscape:pageopacity="0.0"
     inkscape:pagecheckerboard="0"
     inkscape:deskcolor="#d1d1d1"
     inkscape:document-units="mm"
     showgrid="false"
     showguides="true"
     inkscape:zoom="2.0989207"
     inkscape:cx="358.27938"
     inkscape:cy="419.02488"
     inkscape:window-width="1920"
     inkscape:window-height="991"
     inkscape:window-x="2391"
     inkscape:window-y="-9"
     inkscape:window-maximized="1"
     inkscape:current-layer="layer2">
    <sodipodi:guide
       position="140.12125,196.9898"
       orientation="0,-1"
       id="guide2192"
       inkscape:locked="false" />
    <sodipodi:guide
       position="79.330733,156.70048"
       orientation="0,-1"
       id="guide2194"
       inkscape:locked="false" />
    <sodipodi:guide
       position="129.95978,175.06243"
       orientation="1,0"
       id="guide2196"
       inkscape:locked="false" />
    <sodipodi:guide
       position="149.92617,180.76711"
       orientation="1,0"
       id="guide2198"
       inkscape:locked="false" />
    <sodipodi:guide
       position="70.773708,167.04022"
       orientation="0,-1"
       id="guide2200"
       inkscape:locked="false" />
    <sodipodi:guide
       position="92.344536,147.07383"
       orientation="0,-1"
       id="guide2202"
       inkscape:locked="false" />
  </sodipodi:namedview>
  <defs
     id="defs2" />
  <g
     inkscape:label="Capa 1"
     inkscape:groupmode="layer"
     id="layer1">
    <path
       id="path2258-5"
       style="fill:#00ffff;stroke:#280b0b;stroke-width:0.0868991"
       d="M 119.86969 89.996057 L 94.147742 97.517562 L 67.054305 109.68891 C 65.218832 110.17456 64.035621 111.20824 63.28761 112.60708 A 7.142972 7.142972 0 0 0 62.145561 116.47816 A 7.142972 7.142972 0 0 0 62.175533 117.10086 C 62.146103 117.49865 62.124755 117.90287 62.114555 118.31681 C 62.745875 120.1564 63.787267 121.57545 65.36862 122.44059 A 7.142972 7.142972 0 0 0 69.290861 123.61674 A 7.142972 7.142972 0 0 0 71.41838 123.29118 C 71.419072 123.2911 71.419747 123.29126 71.420447 123.29118 L 71.423031 123.29067 L 71.424064 123.28963 A 7.142972 7.142972 0 0 0 73.223437 122.43439 L 94.090898 112.5182 L 118.86148 108.61042 L 138.73934 109.92611 A 9.9829454 9.9829454 0 0 0 139.93926 110.00569 A 9.9829454 9.9829454 0 0 0 139.9465 110.00621 A 9.9829454 9.9829454 0 0 0 142.21509 109.74214 C 146.23031 108.9249 148.52825 106.35 149.45548 103.04332 A 9.9829454 9.9829454 0 0 0 149.92625 100.02335 L 149.92522 100.02335 C 149.92541 100.01935 149.92609 100.01433 149.92625 100.01043 A 9.9829454 9.9829454 0 0 0 147.79305 93.859904 C 147.78225 93.845124 147.77139 93.830629 147.76049 93.815979 A 9.9829454 9.9829454 0 0 0 147.72948 93.776188 C 147.33908 93.255896 146.91049 92.824874 146.44946 92.460506 A 9.9829454 9.9829454 0 0 0 139.94495 90.040499 C 139.94441 90.040365 139.94388 90.040116 139.94288 90.039982 L 139.93409 90.039982 L 119.86969 89.996057 z M 140.11806 96.480416 A 3.5295918 3.5295918 0 0 1 143.65066 100.00578 L 140.12116 100.01043 L 143.65066 100.01043 A 3.5295918 3.5295918 0 0 1 140.1222 103.53993 A 3.5295918 3.5295918 0 0 1 136.59166 100.0125 A 3.5295918 3.5295918 0 0 1 140.11806 96.480416 z " />
  </g>
  <g
     inkscape:groupmode="layer"
     id="layer2"
     inkscape:label="capa2">
    <path
       id="path2258"
       style="fill:#000080;stroke:#280b0b;stroke-width:0.0868991"
       d="m 139.7659,90.027351 c -5.25503,0.19138 -8.76928,2.8971 -9.80612,9.982849 v 29.9496 l -50.896644,0.0889 c -5.47e-4,9e-5 -0.001,4.3e-4 -0.0015,5.2e-4 a 9.9829454,9.9829454 0 0 0 -0.0078,-5.2e-4 9.9829454,9.9829454 0 0 0 -7.05745,2.94194 c -0.04033,0.0388 -0.07881,0.078 -0.117822,0.1173 a 9.9829454,9.9829454 0 0 0 -0.176734,0.18294 c -0.128387,0.13855 -0.249397,0.28004 -0.363285,0.42375 A 9.9829454,9.9829454 0 0 0 69.080802,140.03 c -1.14e-4,5.3e-4 -4.03e-4,0.001 -5.17e-4,0.002 7.7e-5,3.3e-4 -7.7e-5,7.1e-4 0,10e-4 a 9.9829454,9.9829454 0 0 0 0,0.006 9.9829454,9.9829454 0 0 0 2.692859,6.81199 c 0.130858,0.14313 0.272124,0.28187 0.419096,0.41858 a 9.9829454,9.9829454 0 0 0 0.189135,0.17415 9.9829454,9.9829454 0 0 0 6.68073,2.57193 9.9829454,9.9829454 0 0 0 0.0041,0 9.9829454,9.9829454 0 0 0 5.16e-4,0 l 61.054159,-0.0894 a 9.9829454,9.9829454 0 0 0 5.2e-4,0 9.9829454,9.9829454 0 0 0 0.003,0 9.9829454,9.9829454 0 0 0 7.398,-3.28455 c 1.08561,-1.04597 1.82916,-2.33005 2.17816,-3.88917 a 9.9829454,9.9829454 0 0 0 0.4036,-2.80913 h -0.17932 v -0.0124 h 0.17932 a 9.9829454,9.9829454 0 0 0 -0.18759,-1.87947 l -0.17001,-38.04058 c -0.23543,-4.759809 -2.61995,-8.996639 -9.98027,-9.982849 z m 0.35191,6.45284 a 3.5295918,3.5295918 0 0 1 3.5326,3.525359 l -3.5295,0.005 h 3.5295 a 3.5295918,3.5295918 0 0 1 -3.52846,3.5295 3.5295918,3.5295918 0 0 1 -3.53054,-3.52743 3.5295918,3.5295918 0 0 1 3.5264,-3.532079 z" />
  </g>
</svg>
