<?xml version="1.0" encoding="UTF-8" standalone="no"?>
<!-- Created with Inkscape (http://www.inkscape.org/) -->

<svg
   width="594mm"
   height="841mm"
   viewBox="0 0 594 841"
   version="1.1"
   id="svg2185"
   inkscape:version="1.2.1 (9c6d41e410, 2022-07-14)"
   sodipodi:docname="unidos_los_eslabones.svg"
   xmlns:inkscape="http://www.inkscape.org/namespaces/inkscape"
   xmlns:sodipodi="http://sodipodi.sourceforge.net/DTD/sodipodi-0.dtd"
   xmlns="http://www.w3.org/2000/svg"
   xmlns:svg="http://www.w3.org/2000/svg">
  <sodipodi:namedview
     id="namedview2187"
     pagecolor="#ffffff"
     bordercolor="#000000"
     borderopacity="0.25"
     inkscape:showpageshadow="2"
     inkscape:pageopacity="0.0"
     inkscape:pagecheckerboard="0"
     inkscape:deskcolor="#d1d1d1"
     inkscape:document-units="mm"
     showgrid="false"
     inkscape:zoom="0.37104026"
     inkscape:cx="1237.0625"
     inkscape:cy="478.38474"
     inkscape:window-width="1920"
     inkscape:window-height="991"
     inkscape:window-x="2391"
     inkscape:window-y="-9"
     inkscape:window-maximized="1"
     inkscape:current-layer="layer1" />
  <defs
     id="defs2182" />
  <g
     inkscape:label="Capa 1"
     inkscape:groupmode="layer"
     id="layer1">
    <path
       id="path1868"
       style="fill:#000080;stroke:#280b0b;stroke-width:0.264583"
       d="m 63.258298,170.94803 c -0.4092,0 -0.77746,0.15593 -1.06092,0.40566 a 30.410904,29.963684 0 0 0 -2.09186,-0.045 30.410904,29.963684 0 0 0 -29.94029,30.26843 30.410904,29.963684 0 0 0 30.56558,29.65504 30.410904,29.963684 0 0 0 2.0345,-0.0848 c 0.15618,0.0502 0.31968,0.0842 0.49299,0.0842 H 210.12375 c 0.39647,0 0.75409,-0.14697 1.03405,-0.38292 a 30.410904,29.963684 0 0 0 0.82269,0.0258 30.410904,29.963684 0 0 0 30.25448,-29.96355 l -0.007,-0.61598 a 30.410904,29.963684 0 0 0 -30.87356,-29.34395 30.410904,29.963684 0 0 0 -0.8568,0.0444 c -0.12042,-0.0286 -0.24473,-0.0475 -0.37414,-0.0475 z m 147.989422,20.05252 a 9.9296761,9.9296761 0 0 1 10.08103,9.72447 l 0.002,0.20412 a 9.9296761,9.9296761 0 0 1 -9.87846,9.92963 9.9296761,9.9296761 0 0 1 -9.98027,-9.82783 9.9296761,9.9296761 0 0 1 9.77563,-10.03039 z m -149.577442,0.31626 a 9.9296761,9.9296761 0 0 1 10.08052,9.72395 l 0.003,0.20464 a 9.9296761,9.9296761 0 0 1 -9.87898,9.92911 9.9296761,9.9296761 0 0 1 -9.98027,-9.82731 9.9296761,9.9296761 0 0 1 9.77614,-10.03039 z" />
    <path
       id="path1868-8"
       style="fill:#ffff00;stroke:#280b0b;stroke-width:0.264583"
       d="m 200.62236,172.42855 c -0.37491,0.16398 -0.64982,0.45442 -0.80945,0.79681 a 29.963684,30.410904 66.376098 0 0 -1.93457,0.79708 29.963684,30.410904 66.376098 0 0 -15.30166,39.72982 29.963684,30.410904 66.376098 0 0 39.88776,14.92123 29.963684,30.410904 66.376098 0 0 1.83005,-0.89289 c 0.16321,-0.0166 0.32664,-0.051 0.48542,-0.12041 l 134.55748,-58.85358 c 0.36325,-0.15888 0.632,-0.43684 0.79395,-0.76521 a 29.963684,30.410904 66.376098 0 0 0.76408,-0.30604 29.963684,30.410904 66.376098 0 0 15.71169,-39.57639 l -0.25325,-0.56155 a 29.963684,30.410904 66.376098 0 0 -40.04526,-14.5128 29.963684,30.410904 66.376098 0 0 -0.76719,0.38407 c -0.12178,0.0221 -0.24327,0.0545 -0.36184,0.10637 z m 143.62293,-40.93196 a 9.9296761,9.9296761 0 0 1 13.1331,4.86974 l 0.0836,0.18621 a 9.9296761,9.9296761 0 0 1 -5.07149,13.05609 9.9296761,9.9296761 0 0 1 -13.0822,-5.00481 9.9296761,9.9296761 0 0 1 4.9369,-13.1072 z m -136.91546,60.23012 a 9.9296761,9.9296761 0 0 1 13.13242,4.86946 l 0.0847,0.18629 a 9.9296761,9.9296761 0 0 1 -5.07217,13.05582 9.9296761,9.9296761 0 0 1 -13.08199,-5.00433 9.9296761,9.9296761 0 0 1 4.93736,-13.10741 z" />
    <path
       id="path1868-8-2-3"
       style="fill:#ff0000;stroke:#280b0b;stroke-width:0.264583"
       d="m 349.7881,259.81691 c -0.4092,0.002 -0.77689,0.15872 -1.05945,0.40947 a 29.963684,30.410904 89.793998 0 0 -2.09202,-0.0374 29.963684,30.410904 89.793998 0 0 -29.83127,30.37589 29.963684,30.410904 89.793998 0 0 30.67201,29.54495 29.963684,30.410904 89.793998 0 0 2.03418,-0.092 c 0.15637,0.0496 0.32,0.083 0.4933,0.0824 l 146.86448,-0.52804 c 0.39648,-0.002 0.75356,-0.14968 1.03268,-0.38663 a 29.963684,30.410904 89.793998 0 0 0.82277,0.0229 29.963684,30.410904 89.793998 0 0 30.14656,-30.07214 l -0.009,-0.61595 a 29.963684,30.410904 89.793998 0 0 -30.97886,-29.23275 29.963684,30.410904 89.793998 0 0 -0.85664,0.0475 c -0.12053,-0.0281 -0.24489,-0.0467 -0.37431,-0.0462 z m 148.06056,19.5203 a 9.9296761,9.9296761 0 0 1 10.11592,9.68816 l 0.002,0.2041 a 9.9296761,9.9296761 0 0 1 -9.8427,9.96508 9.9296761,9.9296761 0 0 1 -10.01554,-9.79188 9.9296761,9.9296761 0 0 1 9.7395,-10.06547 z m -149.57533,0.85405 a 9.9296761,9.9296761 0 0 1 10.11541,9.68765 l 0.003,0.20461 a 9.9296761,9.9296761 0 0 1 -9.8432,9.96455 9.9296761,9.9296761 0 0 1 -10.01554,-9.79136 9.9296761,9.9296761 0 0 1 9.74001,-10.06548 z" />
    <path
       id="path1868-8-2"
       style="fill:#00ff00;stroke:#280b0b;stroke-width:0.264583"
       d="m 378.58792,141.74395 c 5.4e-4,-0.4092 -0.15441,-0.77776 -0.40359,-1.0617 a 29.963684,30.410904 0.1118365 0 0 0.049,-2.09178 29.963684,30.410904 0.1118365 0 0 -30.20993,-29.99931 29.963684,30.410904 0.1118365 0 0 -29.71465,30.50764 29.963684,30.410904 0.1118365 0 0 0.0807,2.03466 c -0.0505,0.15609 -0.0848,0.31953 -0.0852,0.49283 l -0.28667,146.86515 c -4.4e-4,0.39648 0.1455,0.75438 0.3809,1.03481 a 29.963684,30.410904 0.1118365 0 0 -0.0274,0.82263 29.963684,30.410904 0.1118365 0 0 29.90444,30.31291 l 0.616,-0.006 a 29.963684,30.410904 0.1118365 0 0 29.40415,-30.81623 29.963684,30.410904 0.1118365 0 0 -0.0428,-0.85689 c 0.0287,-0.12037 0.048,-0.24462 0.0482,-0.37405 z m -20.34134,147.95 a 9.9296761,9.9296761 0 0 1 -9.74413,10.06202 l -0.20411,0.001 a 9.9296761,9.9296761 0 0 1 -9.91033,-9.89783 9.9296761,9.9296761 0 0 1 9.8473,-9.96106 9.9296761,9.9296761 0 0 1 10.01128,9.79518 z m -0.0243,-149.57777 a 9.9296761,9.9296761 0 0 1 -9.74361,10.06152 l -0.20463,0.002 a 9.9296761,9.9296761 0 0 1 -9.9098,-9.89833 9.9296761,9.9296761 0 0 1 9.84678,-9.96107 9.9296761,9.9296761 0 0 1 10.01129,9.79569 z" />
    <path
       style="fill:#ff0000;stroke:#280b0b;stroke-width:0.264583"
       d="M 272.39857,173.99279 197.52461,40.645857"
       id="path2355" />
    <path
       style="fill:#ff0000;stroke:#280b0b;stroke-width:0.264583"
       d="M 129.06843,211.78631 101.97119,337.28932"
       id="path2357" />
    <path
       style="fill:#ff0000;stroke:#280b0b;stroke-width:0.264583"
       d="M 348.69868,204.65546 504.86434,72.021606"
       id="path2359" />
    <path
       style="fill:#ff0000;stroke:#280b0b;stroke-width:0.264583"
       d="m 432.84274,305.91357 7.84392,52.76829"
       id="path2361" />
    <text
       xml:space="preserve"
       style="font-size:11.2889px;fill:#ffff00;stroke:#280b0b;stroke-width:0.264583"
       x="169.71428"
       y="36.367348"
       id="text2417"><tspan
         sodipodi:role="line"
         id="tspan2415"
         style="font-size:11.2889px;fill:#ffff00;stroke-width:0.264583"
         x="169.71428"
         y="36.367348">Eslabon 2</tspan></text>
    <text
       xml:space="preserve"
       style="font-size:11.2889px;fill:#000080;stroke:#280b0b;stroke-width:0.264583"
       x="69.972031"
       y="349.33627"
       id="text2417-3"><tspan
         sodipodi:role="line"
         id="tspan2415-4"
         style="font-size:11.2889px;fill:#000080;stroke-width:0.264583"
         x="69.972031"
         y="349.33627">Eslabon 1</tspan></text>
    <text
       xml:space="preserve"
       style="font-size:11.2889px;fill:#00ff00;stroke:#280b0b;stroke-width:0.264583"
       x="482.13528"
       y="69.093773"
       id="text2417-7"><tspan
         sodipodi:role="line"
         id="tspan2415-3"
         style="font-size:11.2889px;fill:#00ff00;stroke-width:0.264583"
         x="482.13528"
         y="69.093773">Eslabon 3</tspan></text>
    <text
       xml:space="preserve"
       style="font-size:11.2889px;fill:#ff0000;stroke:#280b0b;stroke-width:0.264583"
       x="414.39221"
       y="372.86807"
       id="text2417-9"><tspan
         sodipodi:role="line"
         id="tspan2415-2"
         style="font-size:11.2889px;fill:#ff0000;stroke-width:0.264583"
         x="414.39221"
         y="372.86807">Eslabon 4</tspan></text>
  </g>
</svg>
