<?xml version="1.0" encoding="UTF-8" standalone="no"?>
<!-- Created with Inkscape (http://www.inkscape.org/) -->

<svg
   width="210mm"
   height="297mm"
   viewBox="0 0 210 297"
   version="1.1"
   id="svg1685"
   inkscape:version="1.2.1 (9c6d41e410, 2022-07-14)"
   sodipodi:docname="eslabon_bueno.svg"
   xmlns:inkscape="http://www.inkscape.org/namespaces/inkscape"
   xmlns:sodipodi="http://sodipodi.sourceforge.net/DTD/sodipodi-0.dtd"
   xmlns="http://www.w3.org/2000/svg"
   xmlns:svg="http://www.w3.org/2000/svg">
  <sodipodi:namedview
     id="namedview1687"
     pagecolor="#ffffff"
     bordercolor="#000000"
     borderopacity="0.25"
     inkscape:showpageshadow="2"
     inkscape:pageopacity="0.0"
     inkscape:pagecheckerboard="0"
     inkscape:deskcolor="#d1d1d1"
     inkscape:document-units="mm"
     showgrid="false"
     showguides="true"
     inkscape:zoom="1.4841611"
     inkscape:cx="330.82663"
     inkscape:cy="348.68184"
     inkscape:window-width="1920"
     inkscape:window-height="991"
     inkscape:window-x="2391"
     inkscape:window-y="-9"
     inkscape:window-maximized="1"
     inkscape:current-layer="layer1">
    <sodipodi:guide
       position="173.63625,221.05642"
       orientation="0,-1"
       id="guide1689"
       inkscape:locked="false" />
    <sodipodi:guide
       position="329.80191,200.37696"
       orientation="0,-1"
       id="guide1691"
       inkscape:locked="false" />
    <sodipodi:guide
       position="76.300118,236.7443"
       orientation="1,0"
       id="guide1693"
       inkscape:locked="false" />
    <sodipodi:guide
       position="150.46098,232.10925"
       orientation="1,0"
       id="guide1695"
       inkscape:locked="false" />
  </sodipodi:namedview>
  <defs
     id="defs1682" />
  <g
     inkscape:label="Capa 1"
     inkscape:groupmode="layer"
     id="layer1">
    <path
       id="path1712"
       style="fill:#000080;stroke:#280b0b;stroke-width:0.264583"
       d="M 76.121969 76.121969 L 76.121969 76.302836 A 10.607143 10.07233 0 0 0 76.047555 76.301286 A 10.607143 10.07233 0 0 0 65.604264 86.475859 A 10.607143 10.07233 0 0 0 76.265629 96.444759 A 10.607143 10.07233 0 0 0 78.160087 96.266475 L 148.96403 96.266475 A 10.607143 10.07233 0 0 0 150.33708 96.349674 A 10.607143 10.07233 0 0 0 160.88992 86.277938 L 160.88785 86.070715 A 10.607143 10.07233 0 0 0 150.28282 76.209819 L 150.28282 76.121969 L 76.121969 76.121969 z M 150.40736 82.901917 A 3.4762905 2.8523409 0 0 1 153.93634 85.695544 L 153.93737 85.753939 A 3.4762905 2.8523409 0 0 1 150.47867 88.606478 A 3.4762905 2.8523409 0 0 1 146.98483 85.783394 A 3.4762905 2.8523409 0 0 1 150.40736 82.901917 z M 76.157109 83.252799 A 3.4762905 2.8523409 0 0 1 79.686609 86.046427 L 79.687126 86.104822 A 3.4762905 2.8523409 0 0 1 76.228939 88.957361 A 3.4762905 2.8523409 0 0 1 72.735095 86.134277 A 3.4762905 2.8523409 0 0 1 76.157109 83.252799 z " />
  </g>
</svg>
